Coordinates
version=1
nRows=19
nColumns=24
inDegrees=yes

Units are S.I. units (second, meters, Newtons, ...)
Angles are in degrees.

endheader
time	pelvis_tilt	pelvis_list	pelvis_rotation	pelvis_tx	pelvis_ty	pelvis_tz	hip_flexion_r	hip_adduction_r	hip_rotation_r	knee_angle_r	ankle_angle_r	subtalar_angle_r	mtp_angle_r	hip_flexion_l	hip_adduction_l	hip_rotation_l	knee_angle_l	ankle_angle_l	subtalar_angle_l	mtp_angle_l	lumbar_extension	lumbar_bending	lumbar_rotation
      1.45383333	     -0.75419079	      5.61015995	     -2.05535207	      0.21220568	      1.02191558	      0.29177413	     17.34441395	     -7.76225919	     -6.53568141	    -71.19190332	     -3.62800514	     -6.55909465	      2.23445721	     10.66192549	      9.54456769	      0.30435741	    -13.22875071	      5.02673660	    -10.64078986	     -0.64677872	     -1.25829727	     -8.39242508	      4.27750883
      1.45800000	     -0.75208621	      5.50151637	     -2.09243193	      0.21697302	      1.02264053	      0.29153576	     18.00970635	     -7.64731711	     -6.52777413	    -71.13245664	     -3.13395329	     -6.43614981	      2.26767995	     10.19930016	      9.46132278	      0.36138952	    -12.91027410	      5.08853167	    -10.66707771	     -0.62271220	     -1.33507846	     -8.23810300	      4.22814873
      1.46216667	     -0.72762696	      5.39540335	     -2.12485282	      0.22174059	      1.02338561	      0.29129631	     18.63464448	     -7.53635991	     -6.53138644	    -71.01401457	     -2.66948470	     -6.35748613	      2.30101431	      9.71033370	      9.38199648	      0.42165120	    -12.58712918	      5.14499991	    -10.69446829	     -0.60098912	     -1.44043562	     -8.08791349	      4.17576833
      1.46633333	     -0.69058404	      5.28952822	     -2.14797632	      0.22648911	      1.02411279	      0.29103581	     19.23307609	     -7.42896574	     -6.54333628	    -70.84472513	     -2.21949011	     -6.25701953	      2.34393699	      9.20453634	      9.30765248	      0.50988633	    -12.25442816	      5.19611737	    -10.74575980	     -0.57369971	     -1.55811089	     -7.94081484	      4.10031705
      1.47050000	     -0.69067719	      5.18276496	     -2.16961629	      0.23125722	      1.02476618	      0.29079226	     19.85557170	     -7.31110224	     -6.55595446	    -70.61167919	     -1.84442585	     -6.30422269	      2.36558800	      8.74521241	      9.22510002	      0.55600700	    -11.93730521	      5.27157761	    -10.73858683	     -0.56308234	     -1.60786141	     -7.80129474	      4.05588192
      1.47466667	     -0.65580519	      5.08148249	     -2.17201385	      0.23597453	      1.02541733	      0.29048106	     20.42994977	     -7.21764890	     -6.58950563	    -70.34744350	     -1.38441997	     -6.17016591	      2.42488481	      8.24627089	      9.16172481	      0.68650551	    -11.61123987	      5.30387886	    -10.83190325	     -0.53323884	     -1.75289348	     -7.64680092	      3.93406763
      1.47883333	     -0.65777264	      4.96403939	     -2.17165827	      0.24070639	      1.02601013	      0.29020454	     21.02269592	     -7.09067806	     -6.62511131	    -70.00864549	     -1.01242410	     -6.24167595	      2.44961244	      7.80168859	      9.06901499	      0.74157369	    -11.31799648	      5.37750421	    -10.83115029	     -0.52303265	     -1.81361255	     -7.48187032	      3.88610134
      1.48300000	     -0.60071782	      4.85396525	     -2.16206815	      0.24541607	      1.02665603	      0.28987914	     21.53500410	     -6.98907118	     -6.67545565	    -69.62265258	     -0.60808209	     -6.17508619	      2.50927902	      7.28133847	      8.99570043	      0.87799573	    -10.99740541	      5.42166412	    -10.90595688	     -0.49923120	     -1.98851301	     -7.31603295	      3.74840710
      1.48716667	     -0.60559102	      4.74642493	     -2.15064776	      0.25013358	      1.02717813	      0.28956937	     22.10175268	     -6.87764566	     -6.71804904	    -69.18280822	     -0.24103630	     -6.25334345	      2.53606464	      6.84698480	      8.91432062	      0.93960857	    -10.71491946	      5.49242516	    -10.90279067	     -0.49046020	     -2.04845487	     -7.16383626	      3.69295894
      1.49133333	     -0.57281365	      4.63607663	     -2.12409559	      0.25481737	      1.02772904	      0.28922489	     22.60831692	     -6.77548599	     -6.77951987	    -68.68982340	      0.13256091	     -6.22658545	      2.60091419	      6.36276165	      8.83847719	      1.08844448	    -10.41017184	      5.54123893	    -10.98061066	     -0.47101645	     -2.19403260	     -6.99361206	      3.52729686
      1.49550000	     -0.55941258	      4.52240399	     -2.09855450	      0.25950132	      1.02821435	      0.28889405	     23.11879765	     -6.66138574	     -6.83691368	    -68.14068555	      0.49519193	     -6.30894731	      2.63380206	      5.92065575	      8.75018929	      1.16177505	    -10.14913534	      5.61340482	    -10.98003523	     -0.46237023	     -2.29083197	     -6.82865528	      3.46055610
      1.49966667	     -0.52209703	      4.42299065	     -2.07043688	      0.26417602	      1.02870737	      0.28854626	     23.58858433	     -6.56924431	     -6.89337302	    -67.54075815	      0.83242110	     -6.32030351	      2.69442037	      5.43758782	      8.68210602	      1.29153226	     -9.85072736	      5.67547654	    -11.02599894	     -0.44916973	     -2.43415596	     -6.67652183	      3.30077466
      1.50383333	     -0.51638905	      4.30232443	     -2.03088749	      0.26884111	      1.02913894	      0.28820534	     24.06706702	     -6.44632495	     -6.95771309	    -66.87485551	      1.17058839	     -6.39806903	      2.73358840	      5.01075842	      8.58371296	      1.38384013	     -9.60000903	      5.74869166	    -11.02713637	     -0.44178283	     -2.53338310	     -6.50564328	      3.21047401
      1.50800000	     -0.53073439	      4.21315045	     -1.99675062	      0.27352220	      1.02946758	      0.28785892	     24.56120168	     -6.35871179	     -7.00927976	    -66.17799235	      1.50007498	     -6.47891147	      2.76001383	      4.60685477	      8.51763669	      1.45525553	     -9.34826978	      5.83718200	    -11.01552856	     -0.43690418	     -2.57874474	     -6.36066337	      3.12924599
      1.51216667	     -0.49124922	      4.09638560	     -1.94984685	      0.27816600	      1.02988974	      0.28750770	     24.96296324	     -6.24207477	     -7.07349109	    -65.39949159	      1.80369160	     -6.53203432	      2.79882536	      4.14678613	      8.42401900	      1.57535901	     -9.10125089	      5.91738380	    -11.02271670	     -0.43203990	     -2.74031642	     -6.19959775	      2.98256731
      1.51633333	     -0.50018884	      4.01899009	     -1.91441980	      0.28285066	      1.03017179	      0.28716609	     25.41288466	     -6.16420158	     -7.11675730	    -64.59341972	      2.10817952	     -6.62120368	      2.82162345	      3.73783523	      8.36789089	      1.64910711	     -8.84652627	      6.00426320	    -11.00524145	     -0.42909112	     -2.78509865	     -6.05746967	      2.89341398
      1.52050000	     -0.46908304	      3.90992444	     -1.85738999	      0.28750220	      1.03051397	      0.28681186	     25.78171859	     -6.05427092	     -7.18073542	    -63.70415600	      2.35813974	     -6.71202159	      2.88620490	      3.28819232	      8.28086285	      1.79343357	     -8.60039006	      6.06852342	    -11.05307444	     -0.42796531	     -2.94399651	     -5.91294175	      2.63806606
      1.52466667	     -0.46671903	      3.80939320	     -1.80369524	      0.29216093	      1.03078449	      0.28647786	     26.16422963	     -5.94873969	     -7.23723335	    -62.76491119	      2.61718979	     -6.79268620	      2.91653122	      2.88232878	      8.19597053	      1.88921334	     -8.37939036	      6.16334770	    -11.03695231	     -0.42760208	     -3.03072684	     -5.75741303	      2.55265773
      1.52883333	     -0.46067904	      3.72206082	     -1.75146243	      0.29682873	      1.03100942	      0.28614388	     26.52518224	     -5.85499550	     -7.28249968	    -61.77840596	      2.85111090	     -6.89891027	      2.94383738	      2.47101309	      8.12490104	      1.98578662	     -8.15448427	      6.25651715	    -11.02336179	     -0.42906151	     -3.12352236	     -5.62089063	      2.43226492
